<?xml version="1.0" encoding="UTF-8"?>
<svg version="1.1" xmlns="http://www.w3.org/2000/svg" width="100" height="100">
<path d="M0 0 C11.88 0 23.76 0 36 0 C36 2.64 36 5.28 36 8 C38.64 8 41.28 8 44 8 C44 35.72 44 63.44 44 92 C36.74 92 29.48 92 22 92 C22 86.06 22 80.12 22 74 C19.36 74 16.72 74 14 74 C14 79.94 14 85.88 14 92 C6.74 92 -0.52 92 -8 92 C-8 64.28 -8 36.56 -8 8 C-5.36 8 -2.72 8 0 8 C0 5.36 0 2.72 0 0 Z M4 16 C4 17.32 4 18.64 4 20 C5.32 20 6.64 20 8 20 C8 18.68 8 17.36 8 16 C6.68 16 5.36 16 4 16 Z M12 16 C12 17.32 12 18.64 12 20 C13.32 20 14.64 20 16 20 C16 18.68 16 17.36 16 16 C14.68 16 13.36 16 12 16 Z M20 16 C20 17.32 20 18.64 20 20 C21.32 20 22.64 20 24 20 C24 18.68 24 17.36 24 16 C22.68 16 21.36 16 20 16 Z M28 16 C28 17.32 28 18.64 28 20 C29.32 20 30.64 20 32 20 C32 18.68 32 17.36 32 16 C30.68 16 29.36 16 28 16 Z M4 26 C4 28.64 4 31.28 4 34 C5.32 34 6.64 34 8 34 C8 31.36 8 28.72 8 26 C6.68 26 5.36 26 4 26 Z M12 26 C12 28.64 12 31.28 12 34 C13.32 34 14.64 34 16 34 C16 31.36 16 28.72 16 26 C14.68 26 13.36 26 12 26 Z M20 26 C20 28.64 20 31.28 20 34 C21.32 34 22.64 34 24 34 C24 31.36 24 28.72 24 26 C22.68 26 21.36 26 20 26 Z M28 26 C28 28.64 28 31.28 28 34 C29.32 34 30.64 34 32 34 C32 31.36 32 28.72 32 26 C30.68 26 29.36 26 28 26 Z M4 38 C4 40.64 4 43.28 4 46 C5.32 46 6.64 46 8 46 C8 43.36 8 40.72 8 38 C6.68 38 5.36 38 4 38 Z M12 38 C12 40.64 12 43.28 12 46 C13.32 46 14.64 46 16 46 C16 43.36 16 40.72 16 38 C14.68 38 13.36 38 12 38 Z M20 38 C20 40.64 20 43.28 20 46 C21.32 46 22.64 46 24 46 C24 43.36 24 40.72 24 38 C22.68 38 21.36 38 20 38 Z M28 38 C28 40.64 28 43.28 28 46 C29.32 46 30.64 46 32 46 C32 43.36 32 40.72 32 38 C30.68 38 29.36 38 28 38 Z M4 50 C4 52.64 4 55.28 4 58 C5.32 58 6.64 58 8 58 C8 55.36 8 52.72 8 50 C6.68 50 5.36 50 4 50 Z M12 50 C12 52.64 12 55.28 12 58 C13.32 58 14.64 58 16 58 C16 55.36 16 52.72 16 50 C14.68 50 13.36 50 12 50 Z M20 50 C20 52.64 20 55.28 20 58 C21.32 58 22.64 58 24 58 C24 55.36 24 52.72 24 50 C22.68 50 21.36 50 20 50 Z M28 50 C28 52.64 28 55.28 28 58 C29.32 58 30.64 58 32 58 C32 55.36 32 52.72 32 50 C30.68 50 29.36 50 28 50 Z M4 62 C4 64.64 4 67.28 4 70 C5.32 70 6.64 70 8 70 C8 67.36 8 64.72 8 62 C6.68 62 5.36 62 4 62 Z M12 62 C12 64.64 12 67.28 12 70 C13.32 70 14.64 70 16 70 C16 67.36 16 64.72 16 62 C14.68 62 13.36 62 12 62 Z M20 62 C20 64.64 20 67.28 20 70 C21.32 70 22.64 70 24 70 C24 67.36 24 64.72 24 62 C22.68 62 21.36 62 20 62 Z M28 62 C28 64.64 28 67.28 28 70 C29.32 70 30.64 70 32 70 C32 67.36 32 64.72 32 62 C30.68 62 29.36 62 28 62 Z M4 74 C4 77.3 4 80.6 4 84 C5.32 84 6.64 84 8 84 C8 80.7 8 77.4 8 74 C6.68 74 5.36 74 4 74 Z M28 74 C28 77.3 28 80.6 28 84 C29.32 84 30.64 84 32 84 C32 80.7 32 77.4 32 74 C30.68 74 29.36 74 28 74 Z " fill="#000000" transform="translate(16,4)"/>
<path d="M0 0 C9.24 0 18.48 0 28 0 C28 22.44 28 44.88 28 68 C18.76 68 9.52 68 0 68 C0 65.36 0 62.72 0 60 C1.32 60 2.64 60 4 60 C4 58.68 4 57.36 4 56 C2.68 56 1.36 56 0 56 C0 54.68 0 53.36 0 52 C1.32 52 2.64 52 4 52 C4 50.68 4 49.36 4 48 C2.68 48 1.36 48 0 48 C0 46.68 0 45.36 0 44 C1.32 44 2.64 44 4 44 C4 42.68 4 41.36 4 40 C2.68 40 1.36 40 0 40 C0 38.68 0 37.36 0 36 C1.32 36 2.64 36 4 36 C4 34.68 4 33.36 4 32 C2.68 32 1.36 32 0 32 C0 30.68 0 29.36 0 28 C1.32 28 2.64 28 4 28 C4 26.68 4 25.36 4 24 C2.68 24 1.36 24 0 24 C0 22.68 0 21.36 0 20 C1.32 20 2.64 20 4 20 C4 18.68 4 17.36 4 16 C2.68 16 1.36 16 0 16 C0 14.68 0 13.36 0 12 C1.32 12 2.64 12 4 12 C4 10.68 4 9.36 4 8 C2.68 8 1.36 8 0 8 C0 5.36 0 2.72 0 0 Z M8 8 C8 9.32 8 10.64 8 12 C9.32 12 10.64 12 12 12 C12 10.68 12 9.36 12 8 C10.68 8 9.36 8 8 8 Z M16 8 C16 9.32 16 10.64 16 12 C17.32 12 18.64 12 20 12 C20 10.68 20 9.36 20 8 C18.68 8 17.36 8 16 8 Z M8 16 C8 17.32 8 18.64 8 20 C9.32 20 10.64 20 12 20 C12 18.68 12 17.36 12 16 C10.68 16 9.36 16 8 16 Z M16 16 C16 17.32 16 18.64 16 20 C17.32 20 18.64 20 20 20 C20 18.68 20 17.36 20 16 C18.68 16 17.36 16 16 16 Z M8 24 C8 25.32 8 26.64 8 28 C9.32 28 10.64 28 12 28 C12 26.68 12 25.36 12 24 C10.68 24 9.36 24 8 24 Z M16 24 C16 25.32 16 26.64 16 28 C17.32 28 18.64 28 20 28 C20 26.68 20 25.36 20 24 C18.68 24 17.36 24 16 24 Z M8 32 C8 33.32 8 34.64 8 36 C9.32 36 10.64 36 12 36 C12 34.68 12 33.36 12 32 C10.68 32 9.36 32 8 32 Z M16 32 C16 33.32 16 34.64 16 36 C17.32 36 18.64 36 20 36 C20 34.68 20 33.36 20 32 C18.68 32 17.36 32 16 32 Z M8 40 C8 41.32 8 42.64 8 44 C9.32 44 10.64 44 12 44 C12 42.68 12 41.36 12 40 C10.68 40 9.36 40 8 40 Z M16 40 C16 41.32 16 42.64 16 44 C17.32 44 18.64 44 20 44 C20 42.68 20 41.36 20 40 C18.68 40 17.36 40 16 40 Z M8 48 C8 49.32 8 50.64 8 52 C9.32 52 10.64 52 12 52 C12 50.68 12 49.36 12 48 C10.68 48 9.36 48 8 48 Z M16 48 C16 49.32 16 50.64 16 52 C17.32 52 18.64 52 20 52 C20 50.68 20 49.36 20 48 C18.68 48 17.36 48 16 48 Z M8 56 C8 57.32 8 58.64 8 60 C9.32 60 10.64 60 12 60 C12 58.68 12 57.36 12 56 C10.68 56 9.36 56 8 56 Z M16 56 C16 57.32 16 58.64 16 60 C17.32 60 18.64 60 20 60 C20 58.68 20 57.36 20 56 C18.68 56 17.36 56 16 56 Z " fill="#000000" transform="translate(64,28)"/>
</svg>
